<?xml version="1.0"?>
<svg xmlns="http://www.w3.org/2000/svg" xmlns:xlink="http://www.w3.org/1999/xlink" version="1.1" id="Capa_1" x="0px" y="0px" width="512px" height="512px" viewBox="0 0 436.355 436.356" style="enable-background:new 0 0 436.355 436.356;" xml:space="preserve"><g><g>
	<path d="M173.213,192.991c-1.351,0-2.45,1.088-2.45,2.449v97.923c0,1.347,1.1,2.437,2.45,2.437h23.259   c1.353,0,2.451-1.09,2.451-2.437v-97.923c0-1.361-1.098-2.449-2.451-2.449H173.213z" data-original="#000000" class="active-path" data-old_color="#000000" fill="#FFFFFF"/>
	<path d="M249.222,396.137c0,20.867,16.903,37.774,37.771,37.774c18.153,0,33.297-12.804,36.924-29.892   c5.73-3.683,11.642-7.883,11.642-7.883c5.347-38.531-12.026-57.038-13.821-58.14c-0.926-0.593-7.71,0.689-13.954,2.027   c1.651-15.645,2.196-37.064,0.585-54.393c-1.747-19.011-1.687-31.69-4.997-36.704c0.781-6.287,2.404-11.316,4.231-16.827   c3.018-9.169,6.461-19.566,7.006-38.241c1.065-37.053-29.347-75.858-58.501-93.553c-4.224-2.565-8.026-5.911-11.485-9.724v-9.995   c0-21.384-10.972-40.187-27.579-51.131c-0.583-2.621-0.952-4.514-1.108-5.392c-2.51-13.842-16.272-17.897-24.542-18.254   c0,0,0-0.948,0-2.136c0-1.168-1.042-2.448-2.338-2.839l-1.923-0.583c-1.296-0.391-3.366-0.322-4.631,0.156l-1.296,0.487   c-1.249,0.495-2.276,1.978-2.276,3.332v8.249l-4.412,1.766c-1.256,0.503-2.276,1.859-2.276,3.056v2.144   c-33.153,0.735-59.813,27.828-59.813,61.162v0.407h-7.749c-2.709,0-4.897,2.188-4.897,4.899v39.155   c0,2.711,2.188,4.899,4.897,4.899h7.749v19.588h-7.749c-2.709,0-4.897,2.192-4.897,4.891v39.167c0,2.707,2.188,4.893,4.897,4.893   h7.749v29.378h-7.749c-2.709,0-4.897,2.196-4.897,4.901v29.362v14.688v29.378c0,2.705,2.188,4.894,4.897,4.894h7.749v64.059   c0,33.795,27.399,61.193,61.204,61.193h9.786c33.799,0,61.205-27.398,61.205-61.193v-260.07   c3.764,0.932,23.756,8.146,23.756,52.902c0,19.139-2.736,34.809-5.149,48.608c-1.763,10-3.313,18.941-3.586,27.609   c-1.23,2.962-1.059,7.001-1.059,7.001c0,9.017,0,25.728,0,25.728s3.25,45.97,17.761,82.966   C260.675,364.531,249.222,378.981,249.222,396.137z M197.752,16.858c3.14,1.086,6.352,3.078,7.859,6.696   c-2.543-0.988-5.164-1.805-7.859-2.449V16.858z M216.469,292.136c0,0-16.447,39.161-36.724,39.161h-2.442   c-20.278,0-36.714-39.161-36.714-39.161v-97.931c0,0,16.437-36.714,36.714-36.714h2.442c20.277,0,36.724,36.714,36.724,36.714   V292.136z M178.521,118.936c-20.955,0-37.933-16.979-37.933-37.94c0-20.953,16.978-37.94,37.933-37.94   c20.96,0,37.948,16.987,37.948,37.94C216.469,101.956,199.481,118.936,178.521,118.936z M293.893,419.641   c-3.311,1.475-6.824,2.224-10.472,2.224c-8.219,0-16.009-3.972-20.83-10.624c-1.194-1.643-0.834-3.942,0.806-5.129   c1.654-1.19,3.939-0.821,5.137,0.821c3.451,4.753,9.014,7.59,14.888,7.59c2.605,0,5.122-0.524,7.482-1.574   c1.855-0.834,4.016,0,4.845,1.847C296.578,416.643,295.756,418.823,293.893,419.641z M309.148,396.137   c0,1.747-0.168,3.486-0.521,5.182c-0.353,1.747-1.88,2.945-3.587,2.945c-0.24,0-0.492-0.04-0.753-0.084   c-1.983-0.409-3.267-2.349-2.854-4.332c0.249-1.219,0.369-2.452,0.369-3.711c0-8.692-6.164-16.282-14.663-18.018   c-1.988-0.404-3.267-2.344-2.861-4.336c0.412-1.987,2.359-3.258,4.34-2.854C300.501,373.375,309.148,383.979,309.148,396.137z    M273.286,251.212c-1.206-4.264-2.576-6.708-3.803-8.143c0.389-7.606,1.795-15.729,3.387-24.77   c2.492-14.208,5.306-30.304,5.306-50.297c0-22.459-4.2-36.734-9.474-45.823c20.237,18.754,36.844,46.332,36.123,71.408   c-0.489,17.246-3.559,26.5-6.517,35.44c-1.939,5.854-3.771,11.537-4.66,18.734c-0.737,0.705-1.411,1.779-1.855,3.45   c-1.427,5.29-6.557,30.02-7.178,39.221C279.142,266.108,273.286,251.212,273.286,251.212z M276.697,371.299   c1.955-0.521,3.979,0.641,4.5,2.589c0.521,1.964-0.629,3.987-2.585,4.508c-7.995,2.156-13.577,9.446-13.577,17.741   c0,2.04-1.646,3.679-3.671,3.679c-2.031,0-3.671-1.639-3.671-3.679C257.693,384.54,265.512,374.325,276.697,371.299z" data-original="#000000" class="active-path" data-old_color="#000000" fill="#FFFFFF"/>
</g></g> </svg>
