<svg height="512" viewBox="0 0 64 64" width="512" xmlns="http://www.w3.org/2000/svg"><path d="m42 8h-.456a10.006 10.006 0 0 0 -19.088 0h-.456a1 1 0 0 0 -1 1v3a1 1 0 0 0 1 1h.208a9.964 9.964 0 0 0 2.792 5.131v2.869a1 1 0 0 0 1 1h.024l.928 38.073a2.983 2.983 0 0 0 3 2.927h4.1a2.983 2.983 0 0 0 3-2.927l.924-38.073h.024a1 1 0 0 0 1-1v-2.869a9.964 9.964 0 0 0 2.792-5.131h.208a1 1 0 0 0 1-1v-3a1 1 0 0 0 -1-1zm-19 3v-1h18v1zm9-8a8.071 8.071 0 0 1 7.417 5h-14.834a8.071 8.071 0 0 1 7.417-5zm5 16v1h-10v-1zm-1.9 39h-6.2l-.025-1.025a.852.852 0 0 0 .125.025h3a1 1 0 0 0 0-2h-3a.984.984 0 0 0 -.17.034l-.708-29.034h7.756zm-1.049 3h-4.1a1.007 1.007 0 0 1 -1-.976v-.024h6.1v.024a1.007 1.007 0 0 1 -1.003.976zm1.879-37h-7.857l-.049-2h7.952zm1.337-7h-10.531a7.936 7.936 0 0 1 -2.471-4h15.47a7.936 7.936 0 0 1 -2.471 4z"/><path d="m30 38h4a1 1 0 0 0 1-1v-8a1 1 0 0 0 -1-1h-4a1 1 0 0 0 -1 1v8a1 1 0 0 0 1 1zm3-2h-2v-2h2zm-2-6h2v2h-2z"/></svg>